<?xml version="1.0" standalone="no"?><!DOCTYPE svg PUBLIC "-//W3C//DTD SVG 1.1//EN" "http://www.w3.org/Graphics/SVG/1.1/DTD/svg11.dtd"><svg t="1572339531364" class="icon" viewBox="0 0 1024 1024" version="1.1" xmlns="http://www.w3.org/2000/svg" p-id="580" xmlns:xlink="http://www.w3.org/1999/xlink" width="200" height="200"><defs><style type="text/css"></style></defs><path d="M512 0a512 512 0 1 0 512 512A512.596737 512.596737 0 0 0 512 0z m0 921.659674a409.659674 409.659674 0 1 1 409.659674-409.659674 410.25641 410.25641 0 0 1-409.659674 409.659674z" p-id="581"></path><path d="M672.820513 505.435897h-109.501166V252.121212a51.319347 51.319347 0 0 0-102.340326 0v304.634033a51.020979 51.020979 0 0 0 51.020979 51.319347h160.820513a51.319347 51.319347 0 0 0 0-102.638695z" p-id="582"></path></svg>