<?xml version="1.0" standalone="no"?><!DOCTYPE svg PUBLIC "-//W3C//DTD SVG 1.1//EN" "http://www.w3.org/Graphics/SVG/1.1/DTD/svg11.dtd"><svg t="1566892587322" class="icon" viewBox="0 0 1024 1024" version="1.1" xmlns="http://www.w3.org/2000/svg" p-id="3794" xmlns:xlink="http://www.w3.org/1999/xlink" width="128" height="128"><defs><style type="text/css"></style></defs><path d="M924.695 955.976H91.738c-15.334 0-27.766-12.43-27.766-27.766 0-15.333 12.432-27.763 27.766-27.763h832.957c15.332 0 27.763 12.43 27.763 27.763 0 15.337-12.431 27.766-27.763 27.766zM333.018 748.683c-0.008 53.146-43.09 96.224-96.235 96.234h-71.315c-53.145-0.01-96.225-43.088-96.234-96.234V469.142c0.016-53.148 43.101-96.227 96.248-96.234h71.315c53.146 0.007 96.226 43.088 96.233 96.234v279.54h-0.012z m-55.532-279.541c0-22.48-18.224-40.704-40.704-40.704h-71.315c-22.48 0-40.703 18.224-40.703 40.704v279.555c0.015 22.477 18.242 40.689 40.718 40.689h71.315c22.48 0 40.704-18.224 40.704-40.702V469.142h-0.015z m374.832 279.54c-0.01 53.147-43.09 96.225-96.234 96.235h-71.316c-53.145-0.01-96.226-43.088-96.234-96.234v-432.25c0.008-53.145 43.089-96.226 96.234-96.233h71.316c53.145 0.007 96.224 43.088 96.234 96.233v432.25z m-55.531-432.25c0-22.48-18.225-40.702-40.703-40.702h-71.316c-22.48 0-40.703 18.223-40.703 40.703v432.264c0 22.48 18.223 40.702 40.703 40.702h71.316a40.697 40.697 0 0 0 40.703-40.702V316.433z m191.718-40.702c-7.676 0-11.243-6.205-11.243-13.883v-83.823c0-27.238 22.363-27.238 31.456-27.238h32.68c7.67 0 13.884 6.216 13.884 13.882s-6.215 13.882-13.883 13.882h-32.68c-4.665 0-7.371 0.222-8.941 0.488l1.291 82.808c0 7.678-4.9 13.884-12.564 13.884z m-2.638 30.263c-3.622 0-7.232-1.527-9.855-4.025-2.513-2.624-4.027-6.247-4.027-9.856 0-3.61 1.513-7.22 4.027-9.858 5.275-5.275 14.575-5.136 19.711 0 2.5 2.639 4.03 6.11 4.03 9.858 0 3.61-1.529 7.232-4.03 9.856a14.708 14.708 0 0 1-9.856 4.025z" p-id="3795"></path><path d="M957.734 748.683c-0.007 53.146-43.088 96.224-96.235 96.234h-71.314c-53.145-0.01-96.224-43.088-96.233-96.234V163.725c0.016-53.148 43.1-96.227 96.249-96.235h71.313c53.146 0.008 96.227 43.088 96.235 96.235v584.958h-0.015z m-55.528-584.958c0-22.475-18.217-40.698-40.693-40.704H790.2c-22.48 0-40.703 18.224-40.703 40.704v584.97a40.7 40.7 0 0 0 40.703 40.703h71.313a40.705 40.705 0 0 0 40.703-40.702V163.725h-0.01z" p-id="3796"></path></svg>