<?xml version="1.0" standalone="no"?><!DOCTYPE svg PUBLIC "-//W3C//DTD SVG 1.1//EN" "http://www.w3.org/Graphics/SVG/1.1/DTD/svg11.dtd"><svg t="1564730773328" class="icon" viewBox="0 0 1024 1024" version="1.1" xmlns="http://www.w3.org/2000/svg" p-id="3629" xmlns:xlink="http://www.w3.org/1999/xlink" width="128" height="128"><defs><style type="text/css"></style></defs><path d="M873.18463 149.833254C776.601124 53.229267 648.191755 0.001843 511.590401 0.001843A508.066925 508.066925 0 0 0 149.914252 149.833254 508.087405 508.087405 0 0 0 0.144281 511.447963c0 99.532621 28.610509 196.013727 82.739051 279.039497a35.573696 35.573696 0 0 0 59.596693-38.87097 438.476011 438.476011 0 0 1-71.188352-240.168527c0-242.769483 197.508764-440.257768 440.278248-440.257768 242.769483 0 440.257768 197.508764 440.257767 440.257768 0 242.769483-197.508764 440.278247-440.257767 440.278247a439.520489 439.520489 0 0 1-227.450471-63.201166 35.573696 35.573696 0 1 0-36.802494 60.88693 510.647401 510.647401 0 0 0 264.252965 73.461628c136.601354 0 265.031203-53.186464 361.635189-149.79045 96.583506-96.583506 149.79045-225.013355 149.79045-361.635189 0-136.601354-53.206944-265.010723-149.81093-361.614709z" p-id="3630"></path><path d="M693.145274 472.925152c21.647321-22.937559 32.481222-53.596064 32.481221-91.995994 0-18.718686-3.215354-36.454334-9.666542-53.186465a130.252566 130.252566 0 0 0-71.106432-73.215868 151.203568 151.203568 0 0 0-44.933039-12.267498 512.941157 512.941157 0 0 0-60.026772-3.133434H370.278655c-22.46652 0-39.915448 5.181431-49.97111 15.257572-10.076142 10.055662-16.281571 26.480592-16.281571 48.947112V699.392584c0 20.828123 5.73439 36.638654 14.868454 47.390635 9.134064 10.772461 22.589399 16.158691 39.219129 16.158691 15.441892 0 27.56603-5.160951 37.171133-15.441892 9.584623-10.301421 14.008295-26.337233 14.008295-48.127914v-166.7069h37.887932c18.472927 0 33.812419 3.133434 45.977517 8.048626 12.185578 4.915191 24.166357 14.376934 36.003775 27.72987 11.816939 13.332456 25.210835 32.931781 40.202168 58.449815l41.779125 69.611394c9.830382 16.383971 17.612768 28.835788 23.347158 37.273533 5.73439 8.396785 12.574697 15.400932 20.541403 20.889563 7.946226 5.50911 17.776608 8.273905 29.491146 8.273905 9.830382 0 18.493407-1.945596 25.989074-5.79583 7.475187-3.870713 13.393896-9.134064 17.735648-15.790051 4.321272-6.676468 6.492148-13.414376 6.492148-20.193244 0-6.553588-3.686393-18.554847-11.05918-35.983295-7.372787-17.448929-17.674208-36.986813-30.904264-58.654615a441.834725 441.834725 0 0 0-45.117359-61.255569c-16.85501-19.189725-34.529218-33.710019-53.022625-43.540402 44.011441-9.605103 76.840822-25.866193 98.508623-48.803752z m-86.712164-42.311604c-9.011184 10.424301-22.0774 17.080289-39.157689 21.422042-17.080289 4.321272-38.154171 5.79583-63.201167 5.795829h-94.760789v-140.349187h97.566544c35.819456 0 59.801492 2.703355 71.987071 7.843826a65.945481 65.945481 0 0 1 30.187465 24.473556c7.249907 10.87486 10.89534 23.490518 10.895341 37.765052 0 18.268127-4.505592 32.624581-13.516776 43.048882z" p-id="3631"></path></svg>