<?xml version="1.0" standalone="no"?><!DOCTYPE svg PUBLIC "-//W3C//DTD SVG 1.1//EN" "http://www.w3.org/Graphics/SVG/1.1/DTD/svg11.dtd"><svg t="1560392696667" class="icon" style="" viewBox="0 0 1228 1024" version="1.1" xmlns="http://www.w3.org/2000/svg" p-id="6248" xmlns:xlink="http://www.w3.org/1999/xlink" width="153.5" height="128"><defs><style type="text/css"></style></defs><path d="M1104.517443 0H124.260132C55.755782 0 0 54.936597 0 122.468165v778.148999c0 67.531568 55.755782 122.468165 124.260132 122.468165h44.747984a310.445534 310.445534 0 0 0 26.725912 0.051199 196.553213 196.553213 0 0 0 15.026926-0.051199l496.195744 0.767986a213.397705 213.397705 0 0 0 23.653968-0.435192h6.502282l2.406356 0.025599c2.969546 0 7.500663-0.076799 13.055762-0.358393h351.942377c68.50435 0 124.234533-54.936597 124.234532-122.468165V122.468165C1228.751975 54.936597 1173.021792 0 1104.517443 0zM750.399105 937.787685h-19.634841l-2.175961 0.230396-1.305576 0.102398-529.29594-0.460791h-1.66397l-1.766368 0.127997h-23.090778a113.277933 113.277933 0 0 1-18.150069-2.406356c3.174342-43.852 23.474772-105.009284 72.728273-157.974717 40.242466-43.26321 113.815523-94.82067 235.694898-94.820669 122.135371 0 196.399616 51.659857 237.179672 94.999866 49.714293 52.837436 70.424315 113.40593 73.854652 156.976335a131.453601 131.453601 0 0 1-22.373992 3.225541z m391.826449-37.170521c0 20.505226-16.921291 37.170522-37.708111 37.170521h-244.910731c-1.331176-33.816983-9.574225-69.963523-24.08916-105.18848a375.34035 375.34035 0 0 0-73.137865-112.996338c-52.530241-55.806982-147.299712-122.314568-300.640914-122.314568s-247.496283 66.609984-299.463335 122.493765a372.933994 372.933994 0 0 0-75.749017 122.007373V122.468165c0-20.505226 16.946891-37.196121 37.733711-37.196121h980.257311c20.786821 0 37.708112 16.690895 37.708111 37.196121v778.148999zM464.426724 171.209675c-113.098736 0-205.129056 90.673545-205.129056 202.133911s92.03032 202.159511 205.129056 202.159511c113.098736 0 205.129056-90.699145 205.129057-202.159511s-92.03032-202.133911-205.129057-202.133911z m0 319.021378c-65.381207 0-118.602636-52.453443-118.602635-116.887467s53.195829-116.861867 118.602635-116.861867c65.381207 0 118.577036 52.427843 118.577036 116.861867 0 64.434024-53.195829 116.887467-118.577036 116.887467zM779.019383 169.827301h276.346957v85.272043H779.019383V169.827301z m0 170.544087h276.346957v85.272044H779.019383v-85.272044z m0 170.544088h158.537907v85.297643h-158.537907v-85.297643z" p-id="6249"></path></svg>