<?xml version="1.0" standalone="no"?><!DOCTYPE svg PUBLIC "-//W3C//DTD SVG 1.1//EN" "http://www.w3.org/Graphics/SVG/1.1/DTD/svg11.dtd"><svg t="1572339568385" class="icon" viewBox="0 0 1024 1024" version="1.1" xmlns="http://www.w3.org/2000/svg" p-id="1322" xmlns:xlink="http://www.w3.org/1999/xlink" width="200" height="200"><defs><style type="text/css"></style></defs><path d="M942.302948 579.38465V149.244608l-42.44849-0.605077c-1.210154 0-96.416718-1.815231-195.253744-41.657235C603.320106 66.465399 537.83214 19.339197 537.227063 18.73412c0 0-17.57051-18.73412-26.064862-18.73412-7.889275 0-25.483057 18.73412-25.483057 18.73412-0.605077 0.605077-66.093043 47.102929-167.350379 88.201631-98.837026 39.865276-194.04359 41.657235-195.253744 41.657236l-43.053567 0.628349v430.140042C80.021454 795.65319 360.172178 1024 510.557124 1024c151.5951 0 431.745824-228.34681 431.745824-444.61535zM513.466148 966.564214c-107.517556 0-369.446149-205.121156-369.446148-384.92216V207.681098c45.613509-5.1897 119.898366-17.523965 197.418058-48.685439a1148.762255 1148.762255 0 0 0 172.051363-86.991477c32.581078 20.782073 92.530261 55.15511 172.02809 86.991477 77.542965 31.161474 151.827822 43.495739 197.418059 48.685439v373.914411c0 179.824277-262.580214 384.922161-369.446149 384.922161v0.023272z" p-id="1323"></path><path d="M377.859049 550.736574v68.094453h121.85323v-68.094453h-121.85323z m121.85323 93.693871h-121.85323v31.23129h-27.647372v-243.194473h149.500602v-55.806732h27.647372v55.806732h151.036567v242.170496h-27.647371V644.430445H527.359651v105.469603h-27.647372V644.430445z m27.647372-25.599418h123.389196v-68.094453H527.359651v68.094453z m123.389196-93.181883v-66.558487H527.359651v66.558487h123.389196z m-151.036568-66.558487h-121.85323v66.558487h121.85323v-66.558487z m221.690962-136.700893v84.47808H693.755869v-58.366674H328.196177v60.926616H301.060794v-87.038022h197.627509a340.309357 340.309357 0 0 0-16.895616-40.959069l28.671348-4.607896c5.631872 13.311697 11.263744 28.671348 16.383628 45.566965h194.555578z" p-id="1324"></path></svg>