<?xml version="1.0" standalone="no"?><!DOCTYPE svg PUBLIC "-//W3C//DTD SVG 1.1//EN" "http://www.w3.org/Graphics/SVG/1.1/DTD/svg11.dtd"><svg t="1560392756561" class="icon" style="" viewBox="0 0 1024 1024" version="1.1" xmlns="http://www.w3.org/2000/svg" p-id="6798" xmlns:xlink="http://www.w3.org/1999/xlink" width="128" height="128"><defs><style type="text/css"></style></defs><path d="M291.20685 183.13497 161.054581 183.13497 105.275183 183.13497 105.275183 238.914368 105.275183 369.065614 161.054581 369.065614 161.054581 238.914368 291.20685 238.914368Z" p-id="6799" ></path><path d="M732.79315 183.13497 862.944396 183.13497 918.72277 183.13497 918.72277 238.914368 918.72277 369.065614 862.944396 369.065614 862.944396 238.914368 732.79315 238.914368Z" p-id="6800" ></path><path d="M291.20685 840.86503 161.054581 840.86503 105.275183 840.86503 105.275183 785.085632 105.275183 654.934386 161.054581 654.934386 161.054581 785.085632 291.20685 785.085632Z" p-id="6801" ></path><path d="M732.79315 840.86503 862.944396 840.86503 918.72277 840.86503 918.72277 785.085632 918.72277 654.934386 862.944396 654.934386 862.944396 785.085632 732.79315 785.085632Z" p-id="6802" ></path><path d="M302.826492 335.366094l61.807694 0 0 353.268836-61.807694 0 0-353.268836Z" p-id="6803" ></path><path d="M488.267994 335.366094l61.806671 0 0 353.268836-61.806671 0 0-353.268836Z" p-id="6804" ></path><path d="M603.07681 335.366094l17.647939 0 0 353.268836-17.647939 0 0-353.268836Z" p-id="6805" ></path><path d="M688.070576 335.366094l33.099862 0 0 353.268836-33.099862 0 0-353.268836Z" p-id="6806" ></path><path d="M409.066141 335.366094l34.770921 0 0 353.268836-34.770921 0 0-353.268836Z" p-id="6807" ></path></svg>