<?xml version="1.0" standalone="no"?><!DOCTYPE svg PUBLIC "-//W3C//DTD SVG 1.1//EN" "http://www.w3.org/Graphics/SVG/1.1/DTD/svg11.dtd"><svg t="1572339599970" class="icon" viewBox="0 0 1024 1024" version="1.1" xmlns="http://www.w3.org/2000/svg" p-id="1625" xmlns:xlink="http://www.w3.org/1999/xlink" width="200" height="200"><defs><style type="text/css"></style></defs><path d="M4.6 803H480V644.5H4.6V803z m79.2-118.9H163v79.2H83.8v-79.2z m-79.2-515v158.5h792.3V169.1H4.6z m158.5 118.8H83.8v-79.2H163v79.2zM4.6 565.3h515V406.8H4.6v158.5z m79.2-118.9H163v79.2H83.8v-79.2zM888.1 684.2h-20.8l-7.4-7.1c25.8-30 41.3-68.9 41.3-111.3 0-94.4-76.6-171-171-171s-171 76.6-171 171 76.6 171 171 171c42.4 0 81.3-15.5 111.3-41.3l7.1 7.4v20.8L980.1 855l39.2-39.2-131.2-131.6z m-157.8 0c-65.5 0-118.4-52.9-118.4-118.4s52.9-118.4 118.4-118.4 118.4 52.9 118.4 118.4-52.9 118.4-118.4 118.4z" p-id="1626"></path></svg>