<?xml version="1.0" standalone="no"?><!DOCTYPE svg PUBLIC "-//W3C//DTD SVG 1.1//EN" "http://www.w3.org/Graphics/SVG/1.1/DTD/svg11.dtd"><svg t="1563865653698" class="icon" viewBox="0 0 1024 1024" version="1.1" xmlns="http://www.w3.org/2000/svg" p-id="5699" xmlns:xlink="http://www.w3.org/1999/xlink" width="128" height="128"><defs><style type="text/css"></style></defs><path d="M507.906893 956.463728l-320.797293-332.053338c-16.37243-16.37243-38.88452-19.953899-50.140566-8.697853-11.767684 11.767684-7.674576 34.279774 8.186215 50.652204l330.006784 341.774468c9.72113 9.72113 21.488814 14.837514 31.721583 14.837514h3.06983c10.744407-0.511638 22.512091-5.628023 32.233221-15.349153l334.61153-344.844298c16.37243-16.37243 20.465537-39.907797 8.697853-51.675481s-34.791413-8.186215-51.163842 8.697853l-326.425315 336.658084zM834.332208 317.427335l-326.425315 336.146445-320.797293-332.053338c-16.37243-16.37243-38.88452-19.953899-50.140566-8.697853-11.767684 11.767684-7.674576 34.279774 8.186215 50.652204l330.006784 341.774468c9.72113 9.72113 21.488814 14.837514 31.721583 14.837514h2.558192c10.744407-0.511638 22.512091-5.628023 32.233221-15.349152l334.61153-344.844299c16.37243-16.37243 20.465537-39.907797 8.697853-51.675481-11.256045-11.256045-34.279774-7.162938-50.652204 9.209492z m0-301.866671L507.906893 351.707109 187.1096 19.653771C170.73717 3.281342 148.22508-0.300127 136.969034 10.955918c-11.767684 11.767684-7.674576 34.279774 8.186215 50.652204l330.006784 341.774468c9.72113 9.72113 21.488814 14.837514 31.721583 14.837515h2.558192c10.744407-0.511638 22.512091-5.628023 32.233221-15.349153l334.61153-344.844299c16.37243-16.37243 20.465537-39.907797 8.697853-51.675481-11.256045-11.256045-34.279774-7.162938-50.652204 9.209492z" p-id="5700"></path></svg>