<?xml version="1.0" standalone="no"?><!DOCTYPE svg PUBLIC "-//W3C//DTD SVG 1.1//EN" "http://www.w3.org/Graphics/SVG/1.1/DTD/svg11.dtd"><svg t="1563175491809" class="icon" viewBox="0 0 1024 1024" version="1.1" xmlns="http://www.w3.org/2000/svg" p-id="1426" xmlns:xlink="http://www.w3.org/1999/xlink" width="128" height="128"><defs><style type="text/css"></style></defs><path d="M455.75 509.3v60.244C275.17 583.426 132.052 726.53 118.224 905.856L62 905.75c12.235-177.268 132.29-323.529 294.547-374.413-76.747-43.243-127.203-123.456-127.203-216.212C229.344 175.328 342.672 62 482.469 62s253.125 113.328 253.125 253.125c0 29.756-5.681 57.938-15.188 84.375H659.6c12.263-25.65 19.744-54.056 19.744-84.375 0-108.563-88.313-196.875-196.931-196.875s-196.819 88.313-196.819 196.875c0 99.45 74.306 181.013 170.156 194.175zM962 455.75H512V962h450V455.75zM568.25 512h337.5v393.75h-337.5V512z m281.25 56.25h-225v56.25h225v-56.25z m0 112.5h-225V737h225v-56.25zM737 793.25H624.5v56.25H737v-56.25z"  p-id="1427"></path></svg>