<?xml version="1.0" standalone="no"?><!DOCTYPE svg PUBLIC "-//W3C//DTD SVG 1.1//EN" "http://www.w3.org/Graphics/SVG/1.1/DTD/svg11.dtd"><svg t="1566892496612" class="icon" viewBox="0 0 1029 1024" version="1.1" xmlns="http://www.w3.org/2000/svg" p-id="3667" xmlns:xlink="http://www.w3.org/1999/xlink" width="128.625" height="128"><defs><style type="text/css"></style></defs><path d="M992.36352 200.51456h-147.01568a36.7616 36.7616 0 0 0 0 73.5232h91.88352a18.432 18.432 0 0 1 18.3808 18.3808v477.91616a18.432 18.432 0 0 1-18.3808 18.3808H91.88864a18.432 18.432 0 0 1-18.37568-18.3808V292.41856a18.432 18.432 0 0 1 18.37568-18.3808h91.88352a36.7616 36.7616 0 0 0 0-73.5232H36.75648A36.864 36.864 0 0 0 0 237.27616v588.20096a36.864 36.864 0 0 0 36.75136 36.7616h433.01376v88.23296H322.74944a36.76672 36.76672 0 0 0 0 73.52832h367.54432a36.76672 36.76672 0 0 0 0-73.52832h-147.0208v-88.23296h449.09056a36.864 36.864 0 0 0 36.75648-36.7616V237.27616a36.864 36.864 0 0 0-36.75648-36.7616zM514.56 477.91616a236.81536 236.81536 0 0 0 142.0032-47.76448l109.4656 109.4912a36.75648 36.75648 0 1 0 51.97824-51.98848l-109.74208-109.76768A238.44864 238.44864 0 1 0 514.56 477.91616z m0-404.38784a165.43232 165.43232 0 1 1-165.376 165.43232 165.41696 165.41696 0 0 1 165.376-165.43232zM264.192 715.19232a36.864 36.864 0 0 0 36.75136-36.76672V487.26528a36.75648 36.75648 0 1 0-73.50784 0v191.16032a36.864 36.864 0 0 0 36.75648 36.76672zM411.1872 575.488v102.912a36.75648 36.75648 0 1 0 73.50784 0v-102.912a36.75648 36.75648 0 1 0-73.50784 0z m183.7568 58.8288v44.1088a36.75648 36.75648 0 1 0 73.50784 0v-44.1088a36.75648 36.75648 0 1 0-73.50784 0z" p-id="3668"></path></svg>